<svg width="86" height="99" viewBox="0 0 86 99" fill="none" xmlns="http://www.w3.org/2000/svg">
<path d="M67.9688 4.07812C65.2344 5.24999 63.6719 7.59374 63.6719 11.1094C63.6719 13.4531 64.0625 15.4062 65.625 16.5781C67.1875 17.75 68.75 18.1406 70.3125 16.9687C72.2656 16.1875 73.0469 14.625 73.8281 12.2812C75.3906 6.81249 71.875 2.51562 67.9688 4.07812Z" fill="white" fill-opacity="0.15"/>
<path d="M63.2812 21.2656C60.1562 22.0469 56.6406 24.7813 53.5156 29.0781C51.1718 32.2031 50.3906 34.1562 50.7812 34.9375C50.7812 35.3281 51.1718 35.3281 51.5625 35.3281C51.9531 35.3281 53.125 33.7656 54.2968 31.8125C55.4687 29.8594 57.0312 28.2969 57.4218 27.9062C58.9843 26.3437 60.5468 27.5156 59.7656 29.8594C59.7656 30.6406 58.2031 35.7188 56.25 41.1875C52.7343 53.2969 51.9531 56.8125 51.9531 60.3281C51.9531 62.6719 51.9531 63.0625 52.7343 63.8437C53.9062 66.1875 57.0312 66.1875 60.5468 64.625C65.2343 62.2812 72.2656 54.0781 71.875 50.9531C71.875 50.5625 71.4843 50.1719 71.4843 50.1719C71.0937 50.1719 70.7031 50.5625 67.5781 54.8594C64.8437 58.375 63.2812 59.1562 63.2812 56.4219C63.2812 55.6406 64.8437 50.1719 66.4062 43.5312C68.3593 36.8906 69.9218 31.0312 69.9218 29.8594C70.3125 27.5156 70.3125 24.7812 69.5312 23.6094C68.3593 21.6562 66.0156 20.875 63.2812 21.2656Z" fill="white" fill-opacity="0.15"/>
<path fill-rule="evenodd" clip-rule="evenodd" d="M13.2811 36.5C13.2811 63.4531 35.5468 85.7188 62.4999 85.7188C89.453 85.7188 111.719 63.8438 111.719 36.5C111.719 9.15628 89.453 -12.7187 62.4999 -12.7187C35.5468 -12.7187 13.2811 9.5469 13.2811 36.5ZM19.1405 36.5C19.1405 12.6719 38.6718 -6.85935 62.4999 -6.85935C86.328 -6.85935 105.859 12.6719 105.859 36.5C105.859 60.3281 86.328 79.8594 62.4999 79.8594C38.6718 79.8594 19.1405 60.3281 19.1405 36.5Z" fill="white" fill-opacity="0.15"/>
</svg>
