<svg width="12" height="16" viewBox="0 0 12 16" fill="none" xmlns="http://www.w3.org/2000/svg">
<path d="M4.28572 0H1.42858C1.11298 0 0.857147 0.255837 0.857147 0.571429V15.4286C0.857147 15.7442 1.11298 16 1.42858 16H4.28572C4.60131 16 4.85715 15.7442 4.85715 15.4286V0.571429C4.85715 0.255837 4.60131 0 4.28572 0Z" fill="white"/>
<path d="M10.5715 0H7.71437C7.39878 0 7.14294 0.255837 7.14294 0.571429V15.4286C7.14294 15.7442 7.39878 16 7.71437 16H10.5715C10.8871 16 11.1429 15.7442 11.1429 15.4286V0.571429C11.1429 0.255837 10.8871 0 10.5715 0Z" fill="white"/>
</svg>
