<svg width="16" height="17" viewBox="0 0 16 17" fill="none" xmlns="http://www.w3.org/2000/svg"><path d="M2.10864 0.60272L14.6495 7.84317C15.1551 8.13506 15.1551 8.86494 14.6495 9.15683L2.10864 16.3973C1.60311 16.6892 0.970947 16.3242 0.970947 15.7404V1.25955C0.970947 0.675774 1.60278 0.310829 2.10864 0.60272Z" fill="white" /><path d="M14.6499 7.84322L2.109 0.60277C2.03334 0.559262 1.9551 0.534586 1.87652 0.518677L14.0005 7.51853C14.5061 7.81042 14.5061 8.54031 14.0005 8.8322L1.45963 16.0726C1.34631 16.1379 1.22715 16.1662 1.10962 16.1704C1.32261 16.4749 1.74632 16.6064 2.109 16.3973L14.6499 9.15689C15.1554 8.865 15.1554 8.13511 14.6499 7.84322Z" fill="white" /><path d="M2.10864 0.60272L14.6495 7.84317C15.1551 8.13506 15.1551 8.86494 14.6495 9.15683L2.10864 16.3973C1.60311 16.6892 0.970947 16.3242 0.970947 15.7404V1.25955C0.970947 0.675774 1.60278 0.310829 2.10864 0.60272Z" fill="white" />
</svg>