<svg width="18" height="16" viewBox="0 0 18 16" fill="none" xmlns="http://www.w3.org/2000/svg">
<path d="M8.89266 15.9583C7.48608 15.8248 6.02471 15.2574 4.83913 14.3834L4.26891 13.9631L4.78232 13.3783C5.0647 13.0567 5.31072 12.7935 5.32904 12.7935C5.34732 12.7935 5.63756 12.9827 5.97394 13.2141C7.18626 14.0478 8.18964 14.3616 9.6617 14.3679C10.8492 14.3679 11.5046 14.2201 12.6022 13.6826C13.2283 13.3759 13.5233 13.1533 14.1897 12.4842C14.8534 11.818 15.0793 11.5169 15.3833 10.8935C15.9034 9.82676 16.0651 9.14013 16.0651 7.99836C16.0651 6.86427 15.9053 6.18098 15.3883 5.10491C15.0838 4.47122 14.8764 4.19535 14.1955 3.51873C13.3006 2.62962 12.5911 2.19377 11.4902 1.85669C8.10399 0.820219 4.43602 2.88446 3.47002 6.3704C3.18706 7.3915 3.17515 7.36496 3.91651 7.36496C4.26484 7.36496 4.54983 7.39252 4.54983 7.42443C4.54983 7.49115 2.43974 11.169 2.41832 11.139C2.32172 11.0041 0.297485 7.44734 0.297485 7.41268C0.297485 7.38657 0.598666 7.36481 0.966768 7.36481H1.63604L1.73931 6.75404C2.28751 3.51162 4.61921 0.981651 7.7797 0.200019C8.78631 -0.0488737 10.5183 -0.0684543 11.4557 0.157957C16.1017 1.28348 18.7765 6.02535 17.2916 10.5037C16.6667 12.3882 15.3125 14.0077 13.505 15.0323C12.8242 15.4181 11.5056 15.8456 10.7927 15.9113C10.4692 15.9417 10.0621 15.978 9.88789 15.994C9.71374 16.0099 9.26587 15.9937 8.89266 15.9583ZM8.89266 12.2124C8.89266 11.7265 8.88976 11.7207 8.55671 11.6109C8.03319 11.4382 7.30756 10.6544 7.13586 10.0762C6.88662 9.23687 6.8589 9.26501 7.93773 9.26501C8.87955 9.26501 8.88319 9.26574 9.0017 9.51376C9.17577 9.87796 9.7114 9.99747 10.0479 9.74742C10.2055 9.62994 10.3052 9.46227 10.323 9.28372C10.3556 8.95767 10.2258 8.87122 9.20931 8.54096C8.86099 8.42783 8.4335 8.26291 8.25933 8.17444C7.83685 7.95992 7.30563 7.39817 7.1328 6.98335C6.95795 6.5636 6.95212 5.82766 7.11975 5.42473C7.30356 4.98482 7.89649 4.42887 8.37803 4.24496L8.79307 4.08642L8.8199 3.57689L8.84674 3.06736L9.63839 3.04125L10.4301 3.01514V3.55731V4.09948L10.8146 4.27034C11.0261 4.36462 11.3322 4.55375 11.4949 4.69125C11.8797 5.01643 12.2949 5.71728 12.1742 5.8381C12.1249 5.88741 11.7117 6.04362 11.2558 6.18518C10.4783 6.42697 10.4218 6.43306 10.3416 6.28236C10.1467 5.91831 9.25185 5.81837 8.99187 6.13166C8.83138 6.32501 9.13987 6.52545 10.0539 6.82177C11.3377 7.2379 11.9933 7.7544 12.2268 8.53356C12.5685 9.67432 12.0783 10.8454 11.0055 11.4508L10.5205 11.7245V12.2134V12.7025H9.70626H8.89197L8.89266 12.2124Z" fill="#B0A2FC"/>
</svg>
