<svg width="15" height="16" viewBox="0 0 15 16" fill="none" xmlns="http://www.w3.org/2000/svg">
<path d="M4.99475 4.97699H5.99684V12.9937H4.99475V4.97699Z" fill="#B0A2FC"/>
<path d="M6.99908 4.97699H8.00117V12.9937H6.99908V4.97699Z" fill="#B0A2FC"/>
<path d="M9.00305 4.97699H10.0051V12.9937H9.00305V4.97699Z" fill="#B0A2FC"/>
<path d="M0.98645 1.97076H14.0136V2.97285H0.98645V1.97076Z" fill="#B0A2FC"/>
<path d="M9.97183 2.47181H9.03655V1.46973C9.03655 1.1691 8.80273 0.935283 8.5021 0.935283H6.49792C6.1973 0.935283 5.96348 1.1691 5.96348 1.46973V2.47181H5.0282V1.46973C5.0282 0.668056 5.69625 0 6.49792 0H8.5021C9.30377 0 9.97183 0.668056 9.97183 1.46973V2.47181Z" fill="#B0A2FC"/>
<path d="M10.5063 16H4.49375C3.69207 16 2.99061 15.3319 2.92381 14.5303L1.98853 2.50522L2.99061 2.43842L3.9259 14.4635C3.9593 14.7641 4.22652 14.9979 4.49375 14.9979H10.5063C10.8069 14.9979 11.0741 14.7307 11.0741 14.4635L12.0094 2.43842L13.0115 2.50522L12.0762 14.5303C12.0094 15.3653 11.3079 16 10.5063 16Z" fill="#B0A2FC"/>
</svg>
