<svg width="66" height="66" viewBox="0 0 66 66" fill="none" xmlns="http://www.w3.org/2000/svg">
<path d="M24 0H6C4.4087 0 2.88258 0.632141 1.75736 1.75736C0.632141 2.88258 0 4.4087 0 6V45C0 46.5913 0.632141 48.1174 1.75736 49.2426C2.88258 50.3679 4.4087 51 6 51H24C25.5913 51 27.1174 50.3679 28.2426 49.2426C29.3679 48.1174 30 46.5913 30 45V6C30 4.4087 29.3679 2.88258 28.2426 1.75736C27.1174 0.632141 25.5913 0 24 0ZM24 42H6V6H24V42ZM60 36H36V42H60V60H24V57H15V60C15 61.5913 15.6321 63.1174 16.7574 64.2426C17.8826 65.3679 19.4087 66 21 66H60C61.5913 66 63.1174 65.3679 64.2426 64.2426C65.3679 63.1174 66 61.5913 66 60V42C66 40.4087 65.3679 38.8826 64.2426 37.7574C63.1174 36.6321 61.5913 36 60 36ZM66 27L54 21L59.73 18.27C56.22 9.93 48 4.5 39 4.5V0C46.1608 0 53.0284 2.84464 58.0919 7.90812C63.1554 12.9716 66 19.8392 66 27Z" fill="white" fill-opacity="0.15"/>
</svg>
