<svg width="95" height="80" viewBox="0 0 95 80" fill="none" xmlns="http://www.w3.org/2000/svg">
<path fill-rule="evenodd" clip-rule="evenodd" d="M51.0303 10.2459C49.3919 7.6643 45.6081 7.6643 43.9697 10.2459L9.01612 65.3168C7.26017 68.0835 9.258 71.6903 12.5464 71.6903H82.4534C85.7419 71.6903 87.7399 68.0835 85.9837 65.3168L51.0303 10.2459ZM36.9093 5.80854C41.8248 -1.93621 53.1752 -1.93617 58.0909 5.80859L93.0443 60.8794C98.3124 69.1791 92.3186 80 82.4534 80H12.5464C2.68131 80 -3.31223 69.1791 1.95563 60.8794L36.9093 5.80854ZM51.6754 59.2258C51.6754 61.5205 49.8061 63.3806 47.5 63.3806C45.1939 63.3806 43.3246 61.5205 43.3246 59.2258C43.3246 56.9311 45.1939 55.0709 47.5 55.0709C49.8061 55.0709 51.6754 56.9311 51.6754 59.2258ZM42.0474 30.8249L45.0691 48.8669C45.267 50.0494 46.2954 50.9161 47.5 50.9161C48.7046 50.9161 49.733 50.0494 49.9309 48.8669L52.9526 30.8249C53.3769 28.2924 51.4144 25.987 48.834 25.987H46.166C43.5856 25.987 41.6231 28.2924 42.0474 30.8249Z" fill="white" fill-opacity="0.15"/>
</svg>
